<svg xmlns="http://www.w3.org/2000/svg" xmlns:xlink="http://www.w3.org/1999/xlink" viewBox="0 0 1300 641.62"><defs><style>.cls-1{fill:url(#linear-gradient);}</style><linearGradient id="linear-gradient" y1="320.81" x2="1300" y2="320.81" gradientUnits="userSpaceOnUse"><stop offset="0" stop-color="#f04d25"/><stop offset="1" stop-color="#f6b62f"/></linearGradient></defs><title>bgcloud</title><g id="Layer_2" data-name="Layer 2"><g id="Layer_1-2" data-name="Layer 1"><path class="cls-1" d="M30,576a214,214,0,0,1,116,33.91,215.08,215.08,0,0,1,251.23,14,215,215,0,0,1,289.88,17.71,215,215,0,0,1,299.54-9.41,215,215,0,0,1,274.18-13A214.63,214.63,0,0,1,1300,595.71V192.1c-104.55-72-261.43-60-261.43-60C845.08,135.1,761.08,0,761.08,0H0V578.1A216.5,216.5,0,0,1,30,576Z"/></g></g></svg>