<svg xmlns="http://www.w3.org/2000/svg" xmlns:xlink="http://www.w3.org/1999/xlink" viewBox="0 0 1790 1005.99"><defs><style>.cls-1{fill:url(#linear-gradient);}.cls-2{fill:#fff;}</style><linearGradient id="linear-gradient" x1="185" y1="384" x2="1485" y2="384" gradientUnits="userSpaceOnUse"><stop offset="0" stop-color="#f04d25"/><stop offset="1" stop-color="#f6b62f"/></linearGradient></defs><title>bgnew</title><g id="Layer_2" data-name="Layer 2"><g id="Layer_1-2" data-name="Layer 1"><path class="cls-1" d="M185,0H946.08s84,135.1,277.49,132.1c0,0,156.88-12,261.43,60V768H185Z"/><path class="cls-2" d="M1575,576a214,214,0,0,0-129.24,43.17,215,215,0,0,0-274.18,13,215,215,0,0,0-299.54,9.41,215,215,0,0,0-289.88-17.71,215.08,215.08,0,0,0-251.23-14A214,214,0,0,0,215,576C96.26,576,0,672.26,0,791s96.26,215,215,215a214,214,0,0,0,116-33.91,215.08,215.08,0,0,0,251.23-14,215,215,0,0,0,289.88-17.71,215,215,0,0,0,299.54,9.41,215,215,0,0,0,274.18,13A214,214,0,0,0,1575,1006c118.73,0,215-96.25,215-215S1693.74,576,1575,576Z"/></g></g></svg>