<svg xmlns="http://www.w3.org/2000/svg" viewBox="0 0 1790 429.99"><defs><style>.cls-1{fill:#fff;}</style></defs><title>cloud</title><g id="Layer_2" data-name="Layer 2"><g id="Layer_1-2" data-name="Layer 1"><path class="cls-1" d="M1575,0a214,214,0,0,0-129.24,43.17,215,215,0,0,0-274.18,13,215,215,0,0,0-299.54,9.4A215,215,0,0,0,582.17,47.9a215.05,215.05,0,0,0-251.23-14A213.93,213.93,0,0,0,215,0C96.26,0,0,96.26,0,215S96.26,430,215,430a213.93,213.93,0,0,0,116-33.92,215,215,0,0,0,251.23-14,214.95,214.95,0,0,0,289.88-17.7,215,215,0,0,0,299.54,9.4,215,215,0,0,0,274.18,13A214,214,0,0,0,1575,430c118.73,0,215-96.26,215-215S1693.74,0,1575,0Z"/></g></g></svg>